<?xml version="1.0" encoding="utf-8"?>
<!-- Generator: Adobe Illustrator 26.1.0, SVG Export Plug-In . SVG Version: 6.00 Build 0)  -->
<svg version="1.1" id="Layer_1" xmlns="http://www.w3.org/2000/svg" xmlns:xlink="http://www.w3.org/1999/xlink" x="0px" y="0px"
	 viewBox="0 0 2197 1074.5" style="enable-background:new 0 0 2197 1074.5;" xml:space="preserve">
<style type="text/css">
	.st0{fill:#007934;}
	.st1{clip-path:url(#SVGID_00000155148650183389978820000012243931498333197990_);fill:#FFFFFF;}
	.st2{clip-path:url(#SVGID_00000087393457168985493440000003865749992769417403_);fill:#007934;}
	.st3{fill:#646567;}
	.st4{clip-path:url(#SVGID_00000084492312739134629290000002943822906132685497_);fill:#646567;}
	.st5{clip-path:url(#SVGID_00000037677704725180042550000008684153969726207872_);fill:#646567;}
</style>
<g>
	<rect x="109.8" y="108" class="st0" width="430.2" height="560.6"/>
	<g>
		<defs>
			<rect id="SVGID_1_" x="108" y="108" width="432" height="858.5"/>
		</defs>
		<clipPath id="SVGID_00000158029926896838562290000005298696170314362271_">
			<use xlink:href="#SVGID_1_"  style="overflow:visible;"/>
		</clipPath>
		<path style="clip-path:url(#SVGID_00000158029926896838562290000005298696170314362271_);fill:#FFFFFF;" d="M303.7,441.6
			c-13.2-24.8,3.3-40.3,8.1-54.7c4.8-14.7-7.1-24-7.1-24c8,22.4-8.3,32.4-11.9,48.3C288.6,429.5,303.7,441.6,303.7,441.6"/>
		<path style="clip-path:url(#SVGID_00000158029926896838562290000005298696170314362271_);fill:#FFFFFF;" d="M354.6,370.4
			c-0.3,0.6-1.8,2.5-7.3,2.4c-2.8,0-9.4-1.8-9.6-2.8c-0.2-1,2.3-2.5,7.7-5.6c2.3-1.4,6.8-2.7,8.9,0.1
			C356.1,367,355.2,369.4,354.6,370.4 M416.4,343c-27.3,0.9-36.7,7.7-53.6,8.1c0,0,0.1-0.1,0.1-0.1c-0.6,0.1-1.4,0.1-2.2,0.1h-0.2
			c-3.3,0-6.7-0.4-10.3-0.8c-5.2-1.6-12.9-7-13.4-24.7c0-0.4,0-0.8-0.1-1.2c-0.4-9.6-0.8-16.9-1-16.5c-1.3,2.1,0.3,1.9-7.5,13.8
			c-3.2,4.9-6.3,8.6-11.1,14.6c-3.1,4-4.2,7.2-4.2,10.4c0,0.8,0,1.6,0,2.4c-6.5,0.6-9.8,3.1-12.2,4.9c0,0,22.6,8.5,15.8,31.3
			c-6.8,22.8-22.7,40.1-4.3,63.5c0,0-28.2-6.1-25.7-33.7c2-22.1,17-25.2,14.6-46c-2.8-23.7-33.4-14.5-35.1-13.6
			c0,0,8.2-0.8,12.6,5.6c0,0-9.2-2.1-19.3,6.2c0,0,14.3-4,18.1,6c1.5,4,2.2,18.1-32,27.4c-41,11.1-51.5,35.1-55.3,46.3
			c0,0,18.1-21.4,50-14.4c0,0-0.2,14.5-28.7,24.5c-25.1,8.8-42.2,29.9-39.3,55.2c0,0,15.8-29.3,57.7-36.4c0,0-5.2,30.5-57.7,62.8
			c0,0,35.7,6,49.2-13c0,0,8,36.3-43.5,65.8c0,0,44.1,7.8,61.6-29.4c0,0,5.5,21.3-3.2,42.5c0,0,7.6-13,20.3-17c0,0,10.5,11,4.9,49.9
			c0,0,29.7-111.3,124.4-108.1c0,0-31.9-24.1-38.7-65.5c-1.8-10.9-1.6-20.8-1.6-20.8s-19-7.2-19.2-34.2c0,0,6.3,27.9,30.9,28.1
			c23.4,0.2,36.3-15.6,55.3-30.9c8.9-7.2,40-2.1,51.5-6v-10.5h-14.5v-6h15h0.2v-29.1C464.7,352.3,444.9,342,416.4,343"/>
		<path style="clip-path:url(#SVGID_00000158029926896838562290000005298696170314362271_);fill:#FFFFFF;" d="M313.5,326
			c0.9-2.9,2.6-4.2,7.3-11.8c3.2-5.1,7.2-10.9,9.6-17.5c2.2-6.2,3.1-12.7,3.1-17.4c0-3,0-14.7-0.7-14c-0.4,0.5,1.1,2.3-4.4,12
			c-1.9,3.4-4.2,7.7-6.4,11c-3.6,5.5-5.8,10.1-6.1,13.7C315.7,304.3,312.9,327.8,313.5,326"/>
		<path style="clip-path:url(#SVGID_00000158029926896838562290000005298696170314362271_);fill:#FFFFFF;" d="M316.6,280
			c1-2.8,1.8-4.5,4.9-9.4c3.5-5.4,7.1-12.1,8.5-17.7c1.2-5.2,0.9-9.4,1-11.5c0.1-1.9-0.1-10.5-0.6-10c-0.3,0.3-0.1,2.8-1.9,6.2
			c-1.7,3.2-4.4,8.2-5.7,10.5c-1.7,2.9-3.7,6.9-4,9.9C318.5,260.3,316,281.7,316.6,280"/>
		<path style="clip-path:url(#SVGID_00000158029926896838562290000005298696170314362271_);fill:#FFFFFF;" d="M322.2,231
			c2.3-4.3,4.7-7.2,6.2-13c0.6-2.3,0.7-5.6,0.7-7.3c0-1.7-0.6-9.5-0.7-9.5c-0.2,0.2,0.3,1.4-2.1,6.5c-0.9,2-2,4.2-3.1,6.4
			c-1.1,2.3-2.7,5.2-3,7.9c-0.3,2.4-1.4,16.9-1.3,16.3C319.9,235.3,320.8,233.7,322.2,231"/>
		<path style="clip-path:url(#SVGID_00000158029926896838562290000005298696170314362271_);fill:#FFFFFF;" d="M320.9,203.4
			c0.9-4.2,1.9-6.8,2.9-8.7c3.3-6,3.8-10.2,3.5-13.7c-0.3-3.5-1.9-35.5-1.9-35.5s-0.1-2.3-0.5-2.3c-0.4,0-0.6,2.5-0.6,2.5
			S320.2,206.5,320.9,203.4"/>
	</g>
	<path class="st0" d="M108.9,841.2h13.9v-93.5h-13.9V841.2z M108,727.3h15.9v-15.4H108V727.3z"/>
	<g>
		<defs>
			<rect id="SVGID_00000052801392726815726790000009802615820645179011_" x="108" y="108" width="432" height="858.5"/>
		</defs>
		<clipPath id="SVGID_00000074411594761293963910000011005599755965238945_">
			<use xlink:href="#SVGID_00000052801392726815726790000009802615820645179011_"  style="overflow:visible;"/>
		</clipPath>
		<path style="clip-path:url(#SVGID_00000074411594761293963910000011005599755965238945_);fill:#007934;" d="M150.8,747.7h13.9V764
			c6.2-10.1,15.9-18.3,32-18.3c22.6,0,35.8,15.2,35.8,37.4v58h-13.9v-54.6c0-17.3-9.4-28.2-25.8-28.2c-16.1,0-28,11.8-28,29.3v53.5
			h-13.9V747.7z"/>
		<path style="clip-path:url(#SVGID_00000074411594761293963910000011005599755965238945_);fill:#007934;" d="M329.9,794.6v-0.4
			c0-21.5-16.5-36-33.8-36c-18.1,0-32.9,13.4-32.9,36v0.4c0,22.1,15.4,36.2,32.9,36.2C313.4,830.7,329.9,816.1,329.9,794.6
			 M248.8,794.7v-0.4c0-30.6,22.2-48.6,44.7-48.6c17.4,0,28.6,9.4,35.8,19.9v-56.4h13.9v132h-13.9v-18.8
			c-7.6,11.2-18.6,20.8-35.8,20.8C271.1,843.2,248.8,825.5,248.8,794.7"/>
		<path style="clip-path:url(#SVGID_00000074411594761293963910000011005599755965238945_);fill:#007934;" d="M366.5,805.8v-58.1
			h13.9v54.6c0,17.4,9.4,28.2,25.9,28.2c15.9,0,28-11.7,28-29.3v-53.5H448v93.5h-13.8v-16.3c-6.3,10.1-15.9,18.3-32,18.3
			C379.7,843.2,366.5,828,366.5,805.8"/>
		<path style="clip-path:url(#SVGID_00000074411594761293963910000011005599755965238945_);fill:#007934;" d="M467.6,829.3l7-9.9
			c10.1,7.6,21.3,11.9,32.4,11.9c11.2,0,19.4-5.8,19.4-14.8v-0.4c0-9.4-11-13-23.3-16.4c-14.6-4.2-30.9-9.2-30.9-26.4v-0.4
			c0-16.1,13.4-26.8,31.8-26.8c11.4,0,24,4,33.6,10.3l-6.3,10.5c-8.7-5.6-18.6-9.1-27.7-9.1c-11,0-18.1,5.8-18.1,13.6v0.4
			c0,8.8,11.6,12.3,24,16.1c14.5,4.3,30,9.9,30,26.8v0.4c0,17.7-14.6,28-33.3,28C492.9,843,478,837.8,467.6,829.3"/>
	</g>
	<polygon class="st3" points="108,884.4 108,892.5 130.7,892.5 130.7,965.3 139.3,965.3 139.3,892.5 162.1,892.5 162.1,884.4 	"/>
	<g>
		<defs>
			<rect id="SVGID_00000023981325226644160640000017617325362569114268_" x="108" y="108" width="432" height="858.5"/>
		</defs>
		<clipPath id="SVGID_00000026884644243363971730000016995638818240875908_">
			<use xlink:href="#SVGID_00000023981325226644160640000017617325362569114268_"  style="overflow:visible;"/>
		</clipPath>
		<path style="clip-path:url(#SVGID_00000026884644243363971730000016995638818240875908_);fill:#646567;" d="M224.9,925.3v-0.8
			c0-19.5-11-33.4-25.9-33.4c-14.9,0-25.8,13.7-25.8,33.3v0.8c0,19.5,11,33.4,25.9,33.4C214.1,958.6,224.9,944.8,224.9,925.3
			 M164.3,925.4v-0.9c0-23.8,14.3-41.4,34.9-41.4s34.7,17.4,34.7,41.1v0.9c0,23.8-14.2,41.4-34.8,41.4
			C178.4,966.5,164.3,949.1,164.3,925.4"/>
	</g>
	<polygon class="st3" points="288.6,884.2 269.7,950.9 250.7,884.4 241.3,884.4 265.6,965.9 273.2,965.9 292.2,900.6 311.1,965.9 
		318.7,965.9 342.9,884.4 334,884.4 314.9,950.9 296,884.2 	"/>
	<polygon class="st3" points="355.8,884.4 355.8,965.3 405.7,965.3 405.7,957.3 364.5,957.3 364.5,928.4 401,928.4 401,920.6 
		364.5,920.6 364.5,892.4 405.1,892.4 405.1,884.4 	"/>
	<g>
		<defs>
			<rect id="SVGID_00000097463376297091177480000008152712787201326525_" x="108" y="108" width="432" height="858.5"/>
		</defs>
		<clipPath id="SVGID_00000159455330792622329550000002294911472477560712_">
			<use xlink:href="#SVGID_00000097463376297091177480000008152712787201326525_"  style="overflow:visible;"/>
		</clipPath>
		<path style="clip-path:url(#SVGID_00000159455330792622329550000002294911472477560712_);fill:#646567;" d="M447.3,926
			c13.2,0,20.5-6.6,20.5-16.9v-0.2c0-10.6-7.4-16.5-19.5-16.5h-18.4V926H447.3z M421.2,884.4h27.6c9.2,0,16.6,2.8,21.3,7.5
			c4,4,6.4,9.8,6.4,16.6v0.2c0,12.8-8,20.6-19.2,23.3l21.7,33.1h-10.4l-20.3-31.4h-18.4v31.4h-8.7V884.4z"/>
		<path style="clip-path:url(#SVGID_00000159455330792622329550000002294911472477560712_);fill:#646567;" d="M486.5,955l5.4-6.6
			c6.7,6.2,13.6,10,22.7,10c9.7,0,16.2-5.9,16.2-13.6v-0.1c0-6.7-3.2-11-17.9-16.2c-16.8-6.2-23.3-12.3-23.3-23.7v-0.2
			c0-12.1,10.2-21.4,24.4-21.4c9.4,0,17.1,2.9,24.3,9.1l-5.2,6.7c-6-5.2-12.4-7.8-19.4-7.8c-9.2,0-15.2,5.7-15.2,12.6v0.2
			c0,7.1,3.6,11.1,18.8,16.6c16.4,6.1,22.4,12.7,22.4,23.4v0.3c0,12.9-10.6,22-25.1,22C504.2,966.4,495,962.8,486.5,955"/>
	</g>
</g>
<g>
	<path d="M662.4,441.1c-1.1,5.2-1.6,10.1-1.6,14.7c0,4.7,0.4,8.9,1.2,12.6c0.8,3.7,1.7,6.9,2.7,9.5c1.2,3.1,2.5,5.7,4,8.1l-6.2,3.1
		c-1.6-2.3-3-5.1-4.2-8.4c-1.1-2.7-2.1-6.1-2.9-10c-0.9-3.9-1.3-8.4-1.3-13.5c0-6.4,0.7-12.4,2.1-18.1c1.4-5.7,3.2-10.9,5.4-15.7
		c2.1-4.8,4.5-9,6.9-12.8c2.5-3.7,4.8-6.9,6.9-9.5c2.1-2.6,4.6-5.3,7.4-8l4.9,3.1c-3.7,3.6-7.2,7.7-10.5,12.3
		c-1.4,2-2.9,4.1-4.3,6.5c-1.4,2.4-2.8,4.9-4.1,7.6c-1.3,2.7-2.5,5.6-3.7,8.7C664,434.6,663.1,437.8,662.4,441.1z"/>
	<path d="M750.6,395.2l-1.5,7.1h-40.8l-5.2,24.5h32.6l-1.4,7.1h-32.6l-6.9,32.6h-7.6l15.1-71.4H750.6z"/>
	<path d="M742.7,445.1c0-3.4,0.7-6.8,2.2-10.1c1.5-3.3,3.6-6.3,6.2-8.9c2.6-2.6,5.6-4.7,9.1-6.2c3.4-1.6,7.1-2.4,11-2.4
		c3.3,0,6.4,0.6,9.2,1.7c2.8,1.1,5.2,2.7,7.2,4.6c2,2,3.6,4.3,4.7,6.9s1.7,5.5,1.7,8.5c0,3.8-0.8,7.4-2.4,10.7
		c-1.6,3.3-3.8,6.2-6.5,8.7c-2.7,2.5-5.7,4.5-9.1,5.9c-3.4,1.4-6.9,2.2-10.4,2.2c-3.3,0-6.4-0.6-9.2-1.7c-2.8-1.1-5.2-2.7-7.2-4.6
		c-2-2-3.6-4.3-4.7-6.9C743.2,450.9,742.7,448.1,742.7,445.1z M766,460.1c2.7,0,5.2-0.6,7.7-1.7c2.5-1.1,4.7-2.7,6.6-4.6
		c1.9-1.9,3.4-4.1,4.6-6.5c1.2-2.5,1.7-5,1.7-7.7c0-2.2-0.4-4.2-1.2-6.1s-1.9-3.5-3.4-4.9c-1.4-1.4-3.1-2.5-5.1-3.3
		c-2-0.8-4.1-1.2-6.4-1.2c-2.5,0-5,0.5-7.4,1.6c-2.4,1.1-4.6,2.5-6.6,4.4c-1.9,1.8-3.5,4-4.7,6.5c-1.2,2.5-1.8,5.1-1.8,8.1
		c0,2.1,0.4,4.1,1.2,6c0.8,1.9,1.9,3.5,3.3,4.9c1.4,1.4,3.1,2.5,5.1,3.3C761.5,459.7,763.7,460.1,766,460.1z"/>
	<path d="M835.4,424.7h-3.1c-2,0-4.1,0.4-6.1,1.1c-2,0.7-3.9,1.8-5.6,3.1c-1.7,1.3-3.2,2.9-4.4,4.8c-1.3,1.9-2.1,4-2.6,6.4
		l-5.7,26.5h-7.1l10.4-49h7.1l-1.4,8c1.2-1.4,2.7-2.8,4.5-4c1.5-1,3.3-1.9,5.4-2.8c2.1-0.9,4.6-1.3,7.4-1.3h2.7L835.4,424.7z"/>
	<path d="M907.4,438.2c0.1-0.7,0.2-1.4,0.3-2.1c0.1-0.7,0.1-1.3,0.1-1.9c0-3.3-0.9-5.7-2.8-7.4c-1.8-1.7-4.3-2.5-7.3-2.5
		c-1.8,0-3.5,0.4-5.3,1.1c-1.7,0.7-3.3,1.8-4.7,3.1c-1.4,1.4-2.7,3-3.8,5c-1.1,2-1.9,4.2-2.4,6.7l-5.7,26.5h-7.1l6.1-28.5
		c0.3-1.3,0.4-2.6,0.4-4c0-3.3-0.9-5.7-2.8-7.4c-1.8-1.7-4.3-2.5-7.3-2.5c-1.8,0-3.5,0.4-5.3,1.1c-1.7,0.7-3.3,1.8-4.7,3.1
		c-1.4,1.4-2.7,3-3.8,5c-1.1,2-1.9,4.2-2.4,6.7l-5.7,26.5H836l10.4-49h7.1l-1.3,7.5c1-1.4,2.2-2.6,3.6-3.8c1.2-0.9,2.6-1.8,4.4-2.6
		c1.8-0.8,3.9-1.2,6.4-1.2c2.9,0,5.3,0.5,7.2,1.4c1.9,1,3.4,2,4.5,3.1c1.3,1.3,2.3,2.8,3,4.5c1.2-1.7,2.6-3.2,4.4-4.5
		c1.5-1.1,3.4-2.2,5.6-3.1c2.2-1,4.9-1.4,8-1.4c2.2,0,4.3,0.3,6.3,1c1.9,0.6,3.6,1.6,5,2.9c1.4,1.3,2.5,2.8,3.4,4.7
		c0.8,1.9,1.2,4,1.2,6.5c0,1.7-0.2,3.5-0.6,5.5l-6.1,28.5h-7.1L907.4,438.2z"/>
	<path d="M947,460.1c2.6,0,4.9-0.4,7-1.3c2.1-0.8,3.9-1.8,5.4-2.8c1.8-1.2,3.3-2.5,4.7-4l3.9,4.5c-1.6,1.9-3.5,3.6-5.7,5.1
		c-1.8,1.3-4.1,2.5-6.7,3.5c-2.6,1-5.6,1.6-8.9,1.6c-2.9,0-5.6-0.5-8.1-1.6c-2.5-1-4.8-2.5-6.7-4.3c-1.9-1.8-3.4-4-4.5-6.4
		c-1.1-2.5-1.6-5.1-1.6-7.8c0-4.1,0.8-7.9,2.4-11.4c1.6-3.5,3.8-6.6,6.5-9.2c2.7-2.6,5.8-4.6,9.2-6.1c3.4-1.5,6.9-2.3,10.5-2.3
		c2.9,0,5.5,0.4,8,1.3c2.4,0.9,4.6,2.1,6.4,3.6c1.8,1.6,3.3,3.4,4.3,5.6s1.5,4.5,1.5,7.2c0,1.8-0.2,3.5-0.6,5
		c-0.4,1.5-0.8,2.7-1.4,3.7h-39.9v1.5c0,2.1,0.4,4,1.1,5.8c0.7,1.8,1.7,3.3,3,4.7c1.3,1.3,2.8,2.3,4.5,3.1
		C943.2,459.7,945,460.1,947,460.1z M953.7,424.2c-2,0-4.1,0.3-6.1,1c-2,0.7-3.9,1.6-5.6,2.8s-3.3,2.6-4.6,4.3
		c-1.4,1.7-2.4,3.5-3.3,5.5h33.3c0.1-0.3,0.1-0.6,0.1-0.8c0-0.2,0-0.5,0-0.8c0-1.7-0.3-3.4-1-4.9c-0.7-1.5-1.6-2.8-2.9-3.8
		c-1.2-1-2.7-1.9-4.3-2.5C957.6,424.5,955.8,424.2,953.7,424.2z"/>
	<path d="M1015.9,424.7h-3.1c-2,0-4.1,0.4-6.1,1.1c-2,0.7-3.9,1.8-5.6,3.1c-1.7,1.3-3.2,2.9-4.4,4.8c-1.3,1.9-2.1,4-2.6,6.4
		l-5.7,26.5h-7.1l10.4-49h7.1l-1.4,8c1.2-1.4,2.7-2.8,4.5-4c1.5-1,3.3-1.9,5.4-2.8c2.1-0.9,4.6-1.3,7.4-1.3h2.7L1015.9,424.7z"/>
	<path d="M1024.2,466.6h-7.1l15.1-71.4h7.1L1024.2,466.6z"/>
	<path d="M1054.2,466.3l-9.4-48.7h7.3l7.3,39.8l24.3-39.8h8l-34.4,56.1c-1.6,2.6-3.1,4.8-4.5,6.6c-1.5,1.8-2.9,3.3-4.3,4.4
		c-1.4,1.1-2.9,2-4.5,2.5c-1.6,0.5-3.2,0.8-5,0.8c-1.7,0-3.1-0.2-4.3-0.5c-0.6-0.1-1.1-0.3-1.5-0.5l1.3-6.4c0.4,0.1,0.9,0.3,1.3,0.4
		c0.4,0.1,0.9,0.2,1.4,0.3c0.5,0.1,1.1,0.1,1.8,0.1c2.3,0,4.3-0.6,6.1-1.9c1.7-1.3,3.3-3.2,4.8-5.8L1054.2,466.3z"/>
	<path d="M1160.8,428.7c1.6,1,3,2.1,4.2,3.5c1.1,1.2,2.1,2.7,3,4.5c0.9,1.8,1.3,4,1.3,6.5c0,3.5-0.7,6.6-2,9.5
		c-1.3,2.9-3.1,5.3-5.5,7.4c-2.3,2.1-5,3.7-8.2,4.8c-3.1,1.2-6.5,1.7-10.1,1.7h-30.1l15.1-71.4h26.5c2.5,0,4.8,0.4,7,1.3
		c2.1,0.9,4,2,5.6,3.5c1.6,1.5,2.8,3.1,3.6,5c0.8,1.9,1.3,3.9,1.3,6c0,3.5-0.6,6.4-1.9,8.7c-1.3,2.3-2.7,4.1-4.2,5.4
		c-1.5,1.3-2.8,2.2-4,2.8C1161.2,428.4,1160.6,428.7,1160.8,428.7z M1145,459.5c2.4,0,4.7-0.4,6.7-1.2c2-0.8,3.7-1.9,5.2-3.3
		c1.4-1.4,2.5-3,3.4-4.9c0.8-1.9,1.2-4,1.2-6.3c0-1.6-0.3-3.1-0.8-4.5c-0.5-1.4-1.3-2.7-2.3-3.8c-1-1.1-2.3-2-3.7-2.6
		c-1.5-0.6-3.1-1-4.9-1h-21.1l-5.9,27.5H1145z M1134.7,402.4l-4.8,23h19.6c2,0,4-0.3,5.8-0.9c1.8-0.6,3.5-1.5,4.9-2.7
		c1.4-1.2,2.6-2.6,3.4-4.2c0.8-1.7,1.2-3.6,1.2-5.9c0-2.6-1.1-4.8-3.2-6.6c-2.1-1.8-4.8-2.7-8.1-2.7H1134.7z"/>
	<path d="M1195.3,425.6c1.2-1.4,2.5-2.8,4.2-4c1.4-1,3.1-2,5.1-2.8c2-0.8,4.4-1.3,7.1-1.3c2.5,0,4.8,0.4,6.9,1.1
		c2.1,0.7,3.9,1.7,5.4,3.1c1.5,1.4,2.7,3,3.5,5c0.8,1.9,1.2,4.1,1.2,6.5c0,0.7,0,1.5-0.1,2.4c-0.1,0.8-0.2,1.7-0.4,2.6l-6.1,28.5
		h-7.1l6.1-28.5c0.1-0.6,0.2-1.2,0.3-1.7c0.1-0.6,0.1-1.1,0.1-1.6c0-3.3-1-5.9-3.1-7.8c-2.1-1.9-4.7-2.8-8-2.8
		c-2.2,0-4.3,0.4-6.2,1.2c-2,0.8-3.8,2-5.4,3.4c-1.6,1.5-3,3.2-4.2,5.2c-1.2,2-2,4.2-2.5,6.6l-5.6,26h-7.1l15.1-71.4h7.1
		L1195.3,425.6z"/>
	<path d="M1277.2,459.4c-1.4,1.6-3,3-4.8,4.2c-1.6,1-3.4,1.8-5.6,2.3c-2.2,0.5-4.7,0.8-7.5,0.8c-2.7,0-5.2-0.5-7.5-1.6
		c-2.4-1.1-4.5-2.5-6.3-4.4s-3.3-4-4.3-6.5c-1.1-2.5-1.6-5.1-1.6-7.9c0-4.1,0.8-7.8,2.5-11.4c1.7-3.5,3.9-6.6,6.6-9.1
		c2.7-2.6,5.8-4.6,9.2-6.1c3.4-1.5,6.8-2.2,10.2-2.2c2.9,0,5.3,0.5,7.3,1.5c2,1,3.7,2.1,5,3.3c1.6,1.3,2.9,2.9,4,4.7l1.7-9.3h7.1
		l-10.4,49h-7.1L1277.2,459.4z M1260,460.1c2.7,0,5.4-0.7,7.9-2c2.6-1.3,4.8-3,6.8-5.1c2-2.1,3.6-4.5,4.7-7.1c1.2-2.7,1.8-5.3,1.8-8
		c0-2-0.4-3.8-1.2-5.5c-0.8-1.7-1.8-3.1-3.1-4.3c-1.3-1.2-2.8-2.1-4.5-2.8c-1.7-0.7-3.5-1-5.4-1c-2.2,0-4.6,0.6-7,1.7
		c-2.4,1.1-4.6,2.7-6.6,4.6c-2,1.9-3.6,4.2-4.9,6.8c-1.3,2.6-1.9,5.4-1.9,8.4c0,2.1,0.4,4,1.1,5.7c0.7,1.7,1.7,3.3,3,4.5
		c1.2,1.3,2.6,2.3,4.2,3C1256.6,459.7,1258.3,460.1,1260,460.1z"/>
	<path d="M1333.7,424.7h-3.1c-2,0-4.1,0.4-6.1,1.1c-2,0.7-3.9,1.8-5.6,3.1c-1.7,1.3-3.2,2.9-4.4,4.8c-1.3,1.9-2.1,4-2.6,6.4
		l-5.7,26.5h-7.1l10.4-49h7.1l-1.4,8c1.2-1.4,2.7-2.8,4.5-4c1.5-1,3.3-1.9,5.4-2.8c2.1-0.9,4.6-1.3,7.4-1.3h2.7L1333.7,424.7z"/>
	<path d="M1352.7,400.4h6.6l-3.5,17.2h10.7l-1.4,6.6h-10.7l-6.2,28.3c-0.5,2.5-0.4,4.4,0.6,5.6c0.9,1.2,2.4,1.8,4.4,1.8
		c0.9,0,1.7-0.1,2.5-0.2c0.8-0.1,1.6-0.3,2.2-0.5c0.7-0.3,1.5-0.5,2.1-0.8l-1.3,6.6c-0.7,0.3-1.5,0.5-2.2,0.8
		c-0.7,0.2-1.5,0.4-2.3,0.5c-0.9,0.1-1.8,0.2-2.8,0.2c-4.2,0-7.2-1.2-9.1-3.6c-1.8-2.4-2.3-5.9-1.3-10.4l6.2-28.5h-9.2l1.4-6.6h5.6
		c2.7,0,4.4-1.8,5.1-5.4L1352.7,400.4z"/>
	<path d="M1381.4,417.7h7.1l-10.4,49h-7.1L1381.4,417.7z M1383.4,401.3c0-1.4,0.5-2.6,1.5-3.7c1-1.1,2.3-1.6,3.8-1.6
		c1.2,0,2.1,0.4,2.9,1.2c0.8,0.8,1.2,1.7,1.2,2.8c0,1.5-0.6,2.7-1.7,3.7c-1.1,1-2.4,1.5-3.7,1.5c-1.1,0-2-0.4-2.8-1.2
		C1383.8,403.3,1383.4,402.4,1383.4,401.3z"/>
	<path d="M1432,395.2h7.7l-15.1,71.4h-7.6L1432,395.2z"/>
	<path d="M1458.9,424.7c1.2-1.4,2.5-2.8,4.2-4c1.4-1,3.1-1.8,5.1-2.3c2-0.5,4.4-0.8,7.1-0.8c2.5,0,4.8,0.4,6.9,1.1
		c2.1,0.7,3.9,1.7,5.4,3.1c1.5,1.4,2.7,3,3.5,5c0.8,1.9,1.2,4.1,1.2,6.5c0,0.7,0,1.5-0.1,2.4c-0.1,0.8-0.2,1.7-0.4,2.6l-6.1,28.5
		h-7.1l6.1-28.5c0.1-0.6,0.2-1.2,0.3-1.7c0.1-0.6,0.1-1.1,0.1-1.6c0-3.3-1-5.9-3.1-7.8c-2.1-1.9-4.7-2.8-8-2.8
		c-2.2,0-4.3,0.4-6.2,1.2c-2,0.8-3.8,2-5.4,3.4c-1.6,1.5-3,3.2-4.2,5.2c-1.2,2-2,4.2-2.5,6.6l-5.6,26h-7.1l10.4-49h7.1L1458.9,424.7
		z"/>
	<path d="M1532.5,424.3h-11.7l-9,42.3h-7.1l9-42.3h-7.6l1.4-6.6h7.7l1.9-8.8c1-4.4,2.8-7.8,5.7-10.2c2.8-2.4,6.3-3.5,10.4-3.5
		c1,0,2,0.1,2.8,0.3c0.8,0.2,1.6,0.4,2.2,0.6c0.7,0.3,1.4,0.5,2,0.7l-1.4,6.7c-0.5-0.2-1-0.5-1.6-0.7c-0.5-0.2-1.2-0.4-1.9-0.6
		c-0.7-0.2-1.6-0.3-2.4-0.3c-2.1,0-3.9,0.6-5.4,1.8c-1.5,1.2-2.5,3-3.1,5.4l-1.9,8.7h11.7L1532.5,424.3z"/>
	<path d="M1569.3,424.7h-3.1c-2,0-4.1,0.4-6.1,1.1c-2,0.7-3.9,1.8-5.6,3.1c-1.7,1.3-3.2,2.9-4.4,4.8c-1.3,1.9-2.1,4-2.6,6.4
		l-5.7,26.5h-7.1l10.4-49h7.1l-1.4,8c1.2-1.4,2.7-2.8,4.5-4c1.5-1,3.3-1.9,5.4-2.8c2.1-0.9,4.6-1.3,7.4-1.3h2.7L1569.3,424.7z"/>
	<path d="M1608.6,459.4c-1.4,1.6-3,3-4.8,4.2c-1.6,1-3.4,1.8-5.6,2.3c-2.2,0.5-4.7,0.8-7.5,0.8c-2.7,0-5.2-0.5-7.5-1.6
		c-2.4-1.1-4.5-2.5-6.3-4.4s-3.3-4-4.3-6.5c-1.1-2.5-1.6-5.1-1.6-7.9c0-4.1,0.8-7.8,2.5-11.4c1.7-3.5,3.9-6.6,6.6-9.1
		c2.7-2.6,5.8-4.6,9.2-6.1c3.4-1.5,6.8-2.2,10.2-2.2c2.9,0,5.3,0.5,7.3,1.5c2,1,3.7,2.1,5,3.3c1.6,1.3,2.9,2.9,4,4.7l1.7-9.3h7.1
		l-10.4,49h-7.1L1608.6,459.4z M1591.5,460.1c2.7,0,5.4-0.7,7.9-2c2.6-1.3,4.8-3,6.8-5.1c2-2.1,3.6-4.5,4.7-7.1
		c1.2-2.7,1.8-5.3,1.8-8c0-2-0.4-3.8-1.2-5.5c-0.8-1.7-1.8-3.1-3.1-4.3c-1.3-1.2-2.8-2.1-4.5-2.8c-1.7-0.7-3.5-1-5.4-1
		c-2.2,0-4.6,0.6-7,1.7c-2.4,1.1-4.6,2.7-6.6,4.6c-2,1.9-3.6,4.2-4.9,6.8c-1.3,2.6-1.9,5.4-1.9,8.4c0,2.1,0.4,4,1.1,5.7
		c0.7,1.7,1.7,3.3,3,4.5c1.2,1.3,2.6,2.3,4.2,3C1588.1,459.7,1589.7,460.1,1591.5,460.1z"/>
	<path d="M1649,400.4h6.6l-3.5,17.2h10.7l-1.4,6.6h-10.7l-6.2,28.3c-0.5,2.5-0.4,4.4,0.6,5.6c0.9,1.2,2.4,1.8,4.4,1.8
		c0.9,0,1.7-0.1,2.5-0.2c0.8-0.1,1.6-0.3,2.2-0.5c0.7-0.3,1.5-0.5,2.1-0.8l-1.3,6.6c-0.7,0.3-1.5,0.5-2.2,0.8
		c-0.7,0.2-1.5,0.4-2.3,0.5c-0.9,0.1-1.8,0.2-2.8,0.2c-4.2,0-7.2-1.2-9.1-3.6c-1.8-2.4-2.3-5.9-1.3-10.4l6.2-28.5h-9.2l1.4-6.6h5.6
		c2.7,0,4.4-1.8,5.1-5.4L1649,400.4z"/>
	<path d="M1687.5,460.1c2.6,0,4.9-0.4,7-1.3c2.1-0.8,3.9-1.8,5.4-2.8c1.8-1.2,3.3-2.5,4.7-4l3.9,4.5c-1.6,1.9-3.5,3.6-5.7,5.1
		c-1.8,1.3-4.1,2.5-6.7,3.5c-2.6,1-5.6,1.6-8.9,1.6c-2.9,0-5.6-0.5-8.1-1.6c-2.5-1-4.8-2.5-6.7-4.3c-1.9-1.8-3.4-4-4.5-6.4
		c-1.1-2.5-1.6-5.1-1.6-7.8c0-4.1,0.8-7.9,2.4-11.4c1.6-3.5,3.8-6.6,6.5-9.2c2.7-2.6,5.8-4.6,9.2-6.1c3.4-1.5,6.9-2.3,10.5-2.3
		c2.9,0,5.5,0.4,8,1.3c2.4,0.9,4.6,2.1,6.4,3.6c1.8,1.6,3.3,3.4,4.3,5.6s1.5,4.5,1.5,7.2c0,1.8-0.2,3.5-0.6,5
		c-0.4,1.5-0.8,2.7-1.4,3.7h-39.9v1.5c0,2.1,0.4,4,1.1,5.8c0.7,1.8,1.7,3.3,3,4.7c1.3,1.3,2.8,2.3,4.5,3.1
		C1683.7,459.7,1685.5,460.1,1687.5,460.1z M1694.2,424.2c-2,0-4.1,0.3-6.1,1c-2,0.7-3.9,1.6-5.6,2.8s-3.3,2.6-4.6,4.3
		c-1.4,1.7-2.4,3.5-3.3,5.5h33.3c0.1-0.3,0.1-0.6,0.1-0.8c0-0.2,0-0.5,0-0.8c0-1.7-0.3-3.4-1-4.9c-0.7-1.5-1.6-2.8-2.9-3.8
		c-1.2-1-2.7-1.9-4.3-2.5C1698.1,424.5,1696.3,424.2,1694.2,424.2z"/>
	<path d="M1729.5,466.6h-7.1l15.1-71.4h7.1L1729.5,466.6z"/>
	<path d="M1768.8,466.6l15.1-71.4h7.7l-13.7,64.3h36.7l-1.4,7.1H1768.8z"/>
	<path d="M1833.2,417.7h7.1l-10.4,49h-7.1L1833.2,417.7z M1835.3,401.3c0-1.4,0.5-2.6,1.5-3.7c1-1.1,2.3-1.6,3.8-1.6
		c1.2,0,2.1,0.4,2.9,1.2c0.8,0.8,1.2,1.7,1.2,2.8c0,1.5-0.6,2.7-1.7,3.7c-1.1,1-2.4,1.5-3.7,1.5c-1.1,0-2-0.4-2.8-1.2
		C1835.7,403.3,1835.3,402.4,1835.3,401.3z"/>
	<path d="M1917.7,438.2c0.1-0.7,0.2-1.4,0.3-2.1c0.1-0.7,0.1-1.3,0.1-1.9c0-3.3-0.9-5.7-2.8-7.4c-1.8-1.7-4.3-2.5-7.3-2.5
		c-1.8,0-3.5,0.4-5.3,1.1c-1.7,0.7-3.3,1.8-4.7,3.1c-1.4,1.4-2.7,3-3.8,5c-1.1,2-1.9,4.2-2.4,6.7l-5.7,26.5h-7.1l6.1-28.5
		c0.3-1.3,0.4-2.6,0.4-4c0-3.3-0.9-5.7-2.8-7.4c-1.8-1.7-4.3-2.5-7.3-2.5c-1.8,0-3.5,0.4-5.3,1.1c-1.7,0.7-3.3,1.8-4.7,3.1
		c-1.4,1.4-2.7,3-3.8,5c-1.1,2-1.9,4.2-2.4,6.7l-5.7,26.5h-7.1l10.4-49h7.1l-1.3,7.5c1-1.4,2.2-2.6,3.6-3.8c1.2-0.9,2.6-1.8,4.4-2.6
		c1.8-0.8,3.9-1.2,6.4-1.2c2.9,0,5.3,0.5,7.2,1.4c1.9,1,3.4,2,4.5,3.1c1.3,1.3,2.3,2.8,3,4.5c1.2-1.7,2.6-3.2,4.4-4.5
		c1.5-1.1,3.4-2.2,5.6-3.1c2.2-1,4.9-1.4,8-1.4c2.2,0,4.3,0.3,6.3,1c1.9,0.6,3.6,1.6,5,2.9c1.4,1.3,2.5,2.8,3.4,4.7
		c0.8,1.9,1.2,4,1.2,6.5c0,1.7-0.2,3.5-0.6,5.5l-6.1,28.5h-7.1L1917.7,438.2z"/>
	<path d="M1945.4,417.7h7.1l-10.4,49h-7.1L1945.4,417.7z M1947.5,401.3c0-1.4,0.5-2.6,1.5-3.7c1-1.1,2.3-1.6,3.8-1.6
		c1.2,0,2.1,0.4,2.9,1.2c0.8,0.8,1.2,1.7,1.2,2.8c0,1.5-0.6,2.7-1.7,3.7c-1.1,1-2.4,1.5-3.7,1.5c-1.1,0-2-0.4-2.8-1.2
		C1947.9,403.3,1947.5,402.4,1947.5,401.3z"/>
	<path d="M1977,400.4h6.6l-3.5,17.2h10.7l-1.4,6.6h-10.7l-6.2,28.3c-0.5,2.5-0.4,4.4,0.6,5.6c0.9,1.2,2.4,1.8,4.4,1.8
		c0.9,0,1.7-0.1,2.5-0.2c0.8-0.1,1.6-0.3,2.2-0.5c0.7-0.3,1.5-0.5,2.1-0.8l-1.3,6.6c-0.7,0.3-1.5,0.5-2.2,0.8
		c-0.7,0.2-1.5,0.4-2.3,0.5c-0.9,0.1-1.8,0.2-2.8,0.2c-4.2,0-7.2-1.2-9.1-3.6c-1.8-2.4-2.3-5.9-1.3-10.4l6.2-28.5h-9.2l1.4-6.6h5.6
		c2.7,0,4.4-1.8,5.1-5.4L1977,400.4z"/>
	<path d="M2015.4,460.1c2.6,0,4.9-0.4,7-1.3c2.1-0.8,3.9-1.8,5.4-2.8c1.8-1.2,3.3-2.5,4.7-4l3.9,4.5c-1.6,1.9-3.5,3.6-5.7,5.1
		c-1.8,1.3-4.1,2.5-6.7,3.5c-2.6,1-5.6,1.6-8.9,1.6c-2.9,0-5.6-0.5-8.1-1.6c-2.5-1-4.8-2.5-6.7-4.3c-1.9-1.8-3.4-4-4.5-6.4
		c-1.1-2.5-1.6-5.1-1.6-7.8c0-4.1,0.8-7.9,2.4-11.4c1.6-3.5,3.8-6.6,6.5-9.2c2.7-2.6,5.8-4.6,9.2-6.1c3.4-1.5,6.9-2.3,10.5-2.3
		c2.9,0,5.5,0.4,8,1.3c2.4,0.9,4.6,2.1,6.4,3.6c1.8,1.6,3.3,3.4,4.3,5.6s1.5,4.5,1.5,7.2c0,1.8-0.2,3.5-0.6,5
		c-0.4,1.5-0.8,2.7-1.4,3.7h-39.9v1.5c0,2.1,0.4,4,1.1,5.8c0.7,1.8,1.7,3.3,3,4.7c1.3,1.3,2.8,2.3,4.5,3.1
		C2011.6,459.7,2013.4,460.1,2015.4,460.1z M2022.1,424.2c-2,0-4.1,0.3-6.1,1c-2,0.7-3.9,1.6-5.6,2.8s-3.3,2.6-4.6,4.3
		c-1.4,1.7-2.4,3.5-3.3,5.5h33.3c0.1-0.3,0.1-0.6,0.1-0.8c0-0.2,0-0.5,0-0.8c0-1.7-0.3-3.4-1-4.9c-0.7-1.5-1.6-2.8-2.9-3.8
		c-1.2-1-2.7-1.9-4.3-2.5C2026,424.5,2024.2,424.2,2022.1,424.2z"/>
	<path d="M2088.5,459.4c-1.4,1.6-3,3-4.8,4.2c-1.6,1-3.4,1.8-5.6,2.3c-2.2,0.5-4.7,0.8-7.5,0.8c-2.7,0-5.2-0.5-7.5-1.6
		c-2.4-1.1-4.5-2.5-6.3-4.4s-3.3-4-4.3-6.5c-1.1-2.5-1.6-5.1-1.6-7.9c0-4.1,0.8-7.8,2.5-11.4c1.7-3.5,3.9-6.6,6.6-9.1
		c2.7-2.6,5.8-4.6,9.2-6.1c3.4-1.5,6.8-2.2,10.2-2.2c2.9,0,5.3,0.5,7.3,1.5c2,1,3.7,2.1,5,3.3c1.6,1.3,2.9,2.9,4,4.7l6.4-31.8h7.1
		l-15.1,71.4h-7.1L2088.5,459.4z M2071.4,460.1c2.7,0,5.4-0.7,7.9-2c2.6-1.3,4.8-3,6.8-5.1c2-2.1,3.6-4.5,4.7-7.1
		c1.2-2.7,1.8-5.3,1.8-8c0-2-0.4-3.8-1.2-5.5c-0.8-1.7-1.8-3.1-3.1-4.3c-1.3-1.2-2.8-2.1-4.5-2.8c-1.7-0.7-3.5-1-5.4-1
		c-2.2,0-4.6,0.6-7,1.7c-2.4,1.1-4.6,2.7-6.6,4.6c-2,1.9-3.6,4.2-4.9,6.8c-1.3,2.6-1.9,5.4-1.9,8.4c0,2.1,0.4,4,1.1,5.7
		c0.7,1.7,1.7,3.3,3,4.5c1.2,1.3,2.6,2.3,4.2,3C2068,459.7,2069.6,460.1,2071.4,460.1z"/>
	<path d="M2128.1,441.1c0.5-2.6,0.9-5.1,1.2-7.5c0.2-2.4,0.4-4.7,0.4-7c0-4.7-0.4-8.9-1.3-12.6c-0.9-3.7-1.8-6.9-2.7-9.6
		c-1.2-3.1-2.4-5.8-3.9-8.2l6.3-3.1c1.6,2.4,3,5.2,4.2,8.5c1,2.8,2,6.2,2.9,10.1c0.9,3.9,1.3,8.4,1.3,13.5c0,6.4-0.7,12.4-2.1,18.1
		c-1.4,5.7-3.2,10.9-5.4,15.6c-2.1,4.7-4.5,9-7,12.7c-2.5,3.7-4.8,6.9-7,9.5c-2.1,2.6-3.9,4.6-5.3,6c-1.4,1.4-2.1,2-2,1.9l-4.9-3.1
		c3.7-3.6,7.2-7.7,10.5-12.3c2.9-3.9,5.7-8.7,8.4-14.1C2124.5,454,2126.6,447.9,2128.1,441.1z"/>
</g>
</svg>
